<?xml version="1.0" encoding="iso-8859-1"?>
<!-- Uploaded to: SVG Repo, www.svgrepo.com, Generator: SVG Repo Mixer Tools -->
<svg version="1.1" id="Layer_1" xmlns="http://www.w3.org/2000/svg" xmlns:xlink="http://www.w3.org/1999/xlink" 
	 viewBox="0 0 511.999 511.999" xml:space="preserve">
<g>
	<rect x="74.025" y="230.686" style="fill:#C5824B;" width="363.959" height="69.125"/>
	<path style="fill:#C5824B;" d="M399.245,299.809H112.753l24.621,168.954c2.756,18.905,20.6,33.038,41.717,33.038h153.817
		c21.115,0,38.961-14.133,41.716-33.038L399.245,299.809z"/>
</g>
<g>
	<path style="fill:#ADDE52;" d="M255.999,156.32h-39.442c-58.917,0-106.679-47.762-106.679-106.679V10.199h39.442
		c58.917,0,106.679,47.762,106.679,106.679V156.32z"/>
	<path style="fill:#ADDE52;" d="M255.999,156.32h39.442c58.917,0,106.679-47.762,106.679-106.679V10.199h-39.442
		c-58.917,0-106.679,47.762-106.679,106.679V156.32z"/>
</g>
<g>
	<path style="fill:#5E282D;" d="M437.975,220.484H266.198v-53.965h29.242c64.447,0,116.878-52.431,116.878-116.878V10.199
		C412.318,4.566,407.752,0,402.119,0h-39.441c-47.453,0-88.388,28.427-106.679,69.146C237.709,28.427,196.773,0,149.32,0h-39.441
		C104.246,0,99.68,4.566,99.68,10.199v39.441c0,64.447,52.431,116.878,116.878,116.878H245.8v53.965H74.023
		c-5.633,0-10.199,4.566-10.199,10.199v69.125c0,5.633,4.566,10.199,10.199,10.199h29.91l23.349,160.225
		c3.47,23.811,25.743,41.767,51.809,41.767h153.817c26.066,0,48.339-17.956,51.809-41.767l23.349-160.225h29.91
		c5.633,0,10.199-4.566,10.199-10.199v-69.125C448.174,225.051,443.608,220.484,437.975,220.484z M362.678,20.398h29.242v29.242
		c0,53.199-43.28,96.479-96.479,96.479h-14.818l54.754-54.754c3.983-3.983,3.983-10.441,0-14.425
		c-3.983-3.982-10.441-3.982-14.425,0l-54.753,54.755v-14.818C266.198,63.679,309.478,20.398,362.678,20.398z M120.077,49.641
		V20.398h29.242c53.2,0,96.48,43.28,96.48,96.479v14.818l-82.649-82.649c-3.983-3.983-10.441-3.983-14.425,0
		c-3.983,3.983-3.983,10.441,0,14.425l82.649,82.649h-14.818C163.358,146.121,120.077,102.841,120.077,49.641z M364.531,467.292
		c-2.019,13.859-15.615,24.31-31.624,24.31H179.091c-16.009,0-29.604-10.451-31.624-24.31l-22.921-157.284h262.905L364.531,467.292z
		 M84.222,289.609v-48.727h343.555v48.727H84.222z"/>
	<path style="fill:#5E282D;" d="M352.052,70.465c2.61,0,5.22-0.995,7.212-2.987l4.008-4.007c3.983-3.983,3.984-10.44,0-14.424
		c-3.983-3.983-10.44-3.984-14.424,0l-4.008,4.007c-3.983,3.983-3.984,10.44,0,14.424C346.831,69.47,349.441,70.465,352.052,70.465z
		"/>
</g>
</svg>