<svg xmlns="http://www.w3.org/2000/svg" xmlns:xlink="http://www.w3.org/1999/xlink" version="1.1" x="0px" y="0px" viewBox="0 0 100 125" enable-background="new 0 0 100 100" xml:space="preserve"><path fill="#000000" d="M16.952,74.693c0.008,0.044,0.031,0.08,0.044,0.121c0.017,0.052,0.03,0.102,0.055,0.15  c0.033,0.065,0.074,0.121,0.12,0.178c0.031,0.039,0.059,0.078,0.095,0.112c0.059,0.053,0.125,0.091,0.193,0.13  c0.038,0.021,0.071,0.049,0.112,0.064c0.114,0.046,0.237,0.074,0.365,0.074c0,0,0,0,0.001,0l0,0c0,0,0,0,0.001,0  c0.056,0,0.112-0.004,0.169-0.015l0.906-0.156c0.001,0,0.001-0.001,0.002-0.001c0.003,0,0.005,0,0.007,0l1.719-0.312  c0.003-0.001,0.005-0.003,0.007-0.004c0.006,0,0.011,0,0.016-0.001l2.106-0.434l1.054-0.187c0.009-0.001,0.015-0.007,0.023-0.009  c0.015-0.003,0.03-0.001,0.045-0.005l0.973-0.244l6.972-1.363l0.462-0.054l0.506-0.028h0.533h0.5l0.412,0.025l0.452,0.08l0.419,0.09  l0.436,0.109l0.272,0.09l0.312,0.156c0.021,0.01,0.042,0.014,0.063,0.023c0.009,0.004,0.015,0.012,0.024,0.016l0.262,0.1  l0.035,0.029l0.156,0.125c0.021,0.016,0.045,0.021,0.066,0.036c0.017,0.012,0.026,0.029,0.044,0.04l0.099,0.059l0.062,0.051  l0.033,0.033l0.052,0.068c0.013,0.018,0.034,0.023,0.048,0.041c0.019,0.021,0.025,0.047,0.045,0.066l0.072,0.072l0.021,0.043  c0.008,0.015,0.02,0.025,0.027,0.039c0.005,0.009,0.004,0.02,0.01,0.028l0.073,0.122l0.097,0.194l0.069,0.161l0.05,0.131  l0.016,0.112l0.031,0.219c0.004,0.024,0.018,0.045,0.023,0.069c0.005,0.021-0.001,0.043,0.005,0.064l0.04,0.139l0.016,0.144v0.135  l-0.025,0.229c-0.002,0.02,0.006,0.037,0.005,0.056c-0.001,0.02-0.011,0.035-0.011,0.055v0.178l-0.059,0.215  c-0.009,0.031-0.001,0.062-0.006,0.092c-0.006,0.033-0.023,0.061-0.026,0.096l-0.026,0.34l-0.175,0.846c0,0.001,0,0.002,0,0.002  l-0.244,1.066l-0.121,0.486c-0.008,0.03,0.001,0.061-0.004,0.091s-0.022,0.058-0.024,0.089l-0.027,0.434l-0.08,0.401  c-0.007,0.034,0.004,0.065,0,0.099c-0.003,0.033-0.02,0.062-0.02,0.098v0.469v0.469c0,0.023,0.012,0.043,0.014,0.065  c0.001,0.022-0.008,0.044-0.005,0.067l0.06,0.443l0.028,0.401c0.002,0.022,0.014,0.04,0.017,0.062c0.003,0.021-0.004,0.041,0,0.062  l0.087,0.435l0.06,0.417c0.007,0.05,0.032,0.092,0.047,0.139c0.01,0.035,0.006,0.07,0.021,0.104l0.132,0.316l0.11,0.387  c0.011,0.037,0.033,0.065,0.048,0.1c0.01,0.024,0.008,0.049,0.02,0.072l0.18,0.359l0.182,0.394c0.012,0.026,0.032,0.046,0.046,0.07  c0.009,0.016,0.009,0.032,0.019,0.048l0.205,0.322l0.212,0.363c0.019,0.031,0.045,0.056,0.066,0.085  c0.01,0.014,0.013,0.03,0.023,0.044l0.268,0.328l0.229,0.314c0.014,0.02,0.037,0.026,0.052,0.045c0.02,0.023,0.027,0.053,0.05,0.074  l0.312,0.312c0.007,0.006,0.016,0.008,0.022,0.015s0.009,0.015,0.016,0.021l0.312,0.281c0.005,0.005,0.012,0.006,0.017,0.01  c0.005,0.005,0.007,0.011,0.012,0.015l0.375,0.312c0.002,0.002,0.004,0.002,0.006,0.004c0.001,0,0.001,0.002,0.002,0.002  l0.344,0.281c0.029,0.024,0.064,0.034,0.096,0.055c0.023,0.016,0.038,0.039,0.063,0.053l0.383,0.205l0.368,0.215  c0.002,0.002,0.004,0.002,0.005,0.003s0.002,0.001,0.003,0.002l0.438,0.25c0.027,0.017,0.058,0.022,0.087,0.036  c0.014,0.006,0.023,0.019,0.038,0.024l0.443,0.177l0.384,0.178c0.011,0.005,0.022,0.003,0.034,0.008  c0.013,0.005,0.021,0.016,0.033,0.021l0.5,0.188c0.021,0.008,0.042,0.005,0.062,0.011c0.017,0.006,0.029,0.019,0.047,0.023  l0.5,0.125l0.5,0.125c0.006,0.001,0.012,0,0.017,0.002c0.003,0,0.006,0.003,0.009,0.004l0.545,0.121l0.492,0.123  c0.049,0.012,0.098,0.013,0.146,0.018c0.015,0.002,0.025,0.01,0.04,0.01l0.498,0.028l0.436,0.081  c0.062,0.012,0.124,0.018,0.184,0.018c0.001,0,0.001,0,0.001,0h0.406h0.438h0.438c0,0,0,0,0.001,0c0.049,0,0.101-0.004,0.151-0.012  l0.367-0.057l0.37-0.028l0.406-0.031c0.027-0.002,0.05-0.018,0.077-0.021c0.054-0.009,0.107-0.009,0.162-0.026l0.302-0.102  l0.296-0.049c0.007-0.001,0.012-0.006,0.019-0.008c0.09-0.016,0.179-0.041,0.265-0.084l0.287-0.144l0.247-0.067  c0.017-0.004,0.027-0.017,0.043-0.021c0.018-0.006,0.036-0.004,0.054-0.01l0.406-0.156c0.014-0.006,0.021-0.017,0.034-0.022  c0.028-0.013,0.058-0.019,0.085-0.033l0.344-0.188c0.017-0.009,0.025-0.024,0.041-0.034c0.022-0.014,0.047-0.02,0.068-0.035  l0.291-0.211l0.287-0.157c0.024-0.014,0.039-0.037,0.062-0.052c0.029-0.02,0.063-0.029,0.092-0.053l0.301-0.246l0.484-0.312  c0.023-0.016,0.035-0.039,0.057-0.057c0.025-0.019,0.056-0.026,0.079-0.049l0.404-0.373l0.181-0.154  c0.001-0.001,0.002-0.001,0.002-0.002l0.188-0.156c0.026-0.021,0.039-0.053,0.062-0.077c0.02-0.021,0.047-0.028,0.065-0.05  l0.156-0.188l0.156-0.188c0.01-0.012,0.012-0.027,0.021-0.039c0.007-0.009,0.018-0.012,0.024-0.021l0.156-0.219  c0.002-0.003,0.002-0.007,0.005-0.011c0.004-0.006,0.01-0.01,0.014-0.016l0.125-0.188l0.125-0.188  c0.009-0.014,0.009-0.029,0.018-0.043c0.014-0.022,0.033-0.04,0.045-0.064l0.094-0.188c0.007-0.014,0.005-0.028,0.012-0.042  c0.008-0.02,0.022-0.034,0.03-0.054l0.094-0.25c0.004-0.012,0.002-0.023,0.006-0.035c0.005-0.015,0.015-0.026,0.02-0.041  l0.062-0.216l0.081-0.243c0.01-0.029,0.004-0.06,0.011-0.089c0.009-0.036,0.028-0.066,0.033-0.104l0.031-0.25l0.031-0.25  c0-0.004-0.001-0.008-0.001-0.012c0.001-0.005,0.003-0.008,0.004-0.013l0.031-0.312c0.002-0.018-0.006-0.033-0.005-0.051  c0.001-0.017,0.01-0.031,0.01-0.049v-0.312c0-0.016-0.008-0.027-0.009-0.043c0-0.014,0.006-0.025,0.005-0.04l-0.027-0.328v-0.308  c0-0.016-0.008-0.029-0.009-0.045s0.007-0.029,0.005-0.045l-0.031-0.344c-0.001-0.01-0.006-0.017-0.008-0.025  c-0.001-0.009,0.003-0.018,0.002-0.026l-0.062-0.438c-0.002-0.013-0.01-0.022-0.013-0.034c-0.002-0.012,0.003-0.022,0-0.033  l-0.094-0.438c-0.001-0.003-0.002-0.004-0.003-0.007c0-0.003,0.001-0.006,0-0.009l-0.093-0.403l-0.089-0.443  c-0.001-0.006-0.005-0.01-0.006-0.015c-0.002-0.006,0-0.012-0.001-0.018l-0.25-1.062c-0.001-0.006-0.005-0.009-0.006-0.014  c-0.001-0.004,0-0.008-0.001-0.012l-0.312-1.188c-0.001-0.005-0.004-0.008-0.006-0.012c-0.001-0.005,0-0.01-0.001-0.016  l-0.375-1.281c-0.006-0.02-0.021-0.034-0.028-0.055c-0.008-0.02-0.005-0.039-0.013-0.059l-0.056-0.13l-0.043-0.192  c-0.002-0.01-0.01-0.018-0.013-0.027c-0.002-0.011,0.001-0.021-0.002-0.031l-0.04-0.139l-0.016-0.144v-0.192v-0.219v-0.25v-0.157  l0.012-0.091l0.03-0.092c0.002-0.006,0-0.012,0.002-0.018c0.003-0.008,0.009-0.016,0.012-0.023l0.125-0.438  c0.002-0.009,0-0.017,0.002-0.025s0.009-0.016,0.011-0.025l0.078-0.338l0.123-0.32l0.116-0.256l0.197-0.338c0,0,0-0.001,0.001-0.002  l0.133-0.222l0.161-0.185c0.008-0.008,0.01-0.02,0.017-0.029c0.006-0.006,0.014-0.008,0.02-0.016l0.204-0.262l0.172-0.201  c0.001,0,0.001-0.001,0.001-0.002c0.001-0.001,0.003-0.001,0.004-0.002l0.294-0.348l0.155-0.133  c0.001-0.002,0.002-0.004,0.003-0.004c0.002-0.002,0.004-0.002,0.005-0.004l0.223-0.194l0.199-0.149h0.001l0.176-0.126l0.202-0.112  l0.252-0.126l0.203-0.076c0.004-0.001,0.006-0.005,0.01-0.006c0.003-0.001,0.007-0.001,0.01-0.002l0.285-0.114l0.281-0.094  l0.272-0.049c0.011-0.002,0.019-0.01,0.029-0.012c0.019-0.004,0.036-0.003,0.055-0.008l0.32-0.088l0.319-0.073l0.331-0.025  l0.368-0.028h0.43h0.469h0.438l0.469,0.029c0.002,0,0.004,0,0.006,0h0.001l0.503,0.028l0.473,0.083  c0.004,0.001,0.009,0.001,0.013,0.002c0.002,0,0.003,0.001,0.005,0.002l0.594,0.094l0.577,0.091l0.602,0.12c0.002,0,0.004,0,0.005,0  c0.002,0.001,0.003,0.002,0.004,0.002l0.642,0.122l0.606,0.145l0.719,0.188c0.002,0.001,0.004,0,0.006,0.001  c0.002,0,0.003,0.001,0.004,0.002l0.74,0.185l0.697,0.182l0.833,0.247c0.001,0,0.002,0,0.003,0l0.8,0.246l0.808,0.249  c0.001,0,0.001,0.001,0.002,0.001l0.904,0.28c0,0.001,0,0.001,0,0.001l6.594,2.062c0.1,0.03,0.2,0.045,0.299,0.045  c0.105,0,0.208-0.017,0.307-0.049c0.027-0.009,0.051-0.027,0.077-0.038c0.068-0.028,0.137-0.058,0.197-0.101  c0.027-0.02,0.048-0.049,0.074-0.07c0.052-0.047,0.104-0.09,0.146-0.146c0.023-0.032,0.037-0.072,0.057-0.107  c0.03-0.053,0.066-0.102,0.087-0.162l0.312-0.906c0.001-0.002,0-0.004,0.001-0.006c0-0.001,0.001-0.002,0.002-0.004l0.12-0.361  l0.154-0.432c0.005-0.012,0.002-0.025,0.006-0.037c0.005-0.017,0.016-0.028,0.02-0.045l0.307-1.164l0,0l0.594-2.062  c0-0.002,0-0.003,0-0.004c0,0,0.001-0.001,0.001-0.002l0.406-1.438c0.002-0.008,0-0.016,0.002-0.023  c0.003-0.012,0.01-0.02,0.013-0.031l0.312-1.406c0,0,0-0.001,0-0.002l0.309-1.296c0.002-0.007-0.001-0.014,0.001-0.021  c0.002-0.009,0.007-0.016,0.009-0.023l0.125-0.656v-0.001l0.123-0.615c0.001-0.007-0.001-0.014,0-0.021  c0.001-0.008,0.006-0.013,0.007-0.02l0.094-0.594l0.094-0.594l0.094-0.594c0.001-0.007-0.002-0.012-0.001-0.019  s0.006-0.013,0.007-0.021l0.062-0.531c0.001-0.012-0.004-0.021-0.003-0.032s0.007-0.019,0.008-0.029l0.031-0.559  c0-0.001,0-0.001,0-0.001l0.029-0.498l0.06-0.506c0.001-0.009-0.003-0.016-0.002-0.023s0.005-0.015,0.006-0.022l0.031-0.438  c0.001-0.013-0.005-0.022-0.005-0.034c0.001-0.014,0.008-0.024,0.008-0.037v-0.5c0-0.014-0.007-0.025-0.008-0.038  c0-0.014,0.006-0.024,0.005-0.038l-0.028-0.369v-0.398c0-0.024-0.012-0.045-0.014-0.068c-0.002-0.025,0.008-0.049,0.004-0.073  l-0.061-0.421l-0.027-0.333c-0.001-0.017-0.012-0.03-0.014-0.048c-0.002-0.016,0.004-0.031,0.001-0.048l-0.062-0.344  c-0.002-0.011-0.01-0.02-0.012-0.03c-0.003-0.012,0.001-0.022-0.002-0.033l-0.086-0.346l-0.057-0.31  c-0.007-0.04-0.031-0.069-0.043-0.107c-0.012-0.04-0.009-0.081-0.026-0.12l-0.081-0.182l-0.04-0.202  c-0.004-0.019-0.017-0.032-0.021-0.05c-0.017-0.062-0.046-0.119-0.074-0.179c-0.031-0.063-0.06-0.126-0.102-0.182  c-0.011-0.014-0.014-0.03-0.025-0.044l-0.06-0.07l-0.022-0.068c-0.001-0.001-0.002-0.003-0.002-0.004l-0.008-0.023  c-0.019-0.057-0.058-0.098-0.084-0.147c-0.032-0.06-0.051-0.122-0.096-0.177l-0.156-0.188l-0.156-0.188  c-0.011-0.012-0.025-0.018-0.036-0.029c-0.011-0.011-0.015-0.025-0.025-0.037l-0.219-0.219c-0.018-0.018-0.042-0.023-0.061-0.04  c-0.018-0.016-0.027-0.038-0.047-0.053L80.6,53.505l-0.337-0.253l-0.281-0.253c-0.005-0.005-0.011-0.005-0.016-0.009  c-0.006-0.005-0.008-0.012-0.013-0.016l-0.188-0.156l-0.188-0.156c-0.019-0.016-0.041-0.02-0.061-0.033  c-0.019-0.014-0.029-0.035-0.05-0.047l-0.25-0.156c-0.006-0.004-0.014-0.004-0.02-0.008s-0.009-0.01-0.015-0.013l-0.219-0.125  c-0.002-0.001-0.004-0.001-0.006-0.002s-0.003-0.003-0.005-0.004l-0.281-0.156c-0.014-0.007-0.028-0.007-0.042-0.014  c-0.015-0.007-0.022-0.02-0.037-0.026l-0.281-0.125c-0.038-0.017-0.078-0.014-0.117-0.025c-0.038-0.013-0.069-0.037-0.11-0.045  l-0.344-0.062c-0.003,0-0.005,0.001-0.008,0c-0.003,0-0.004-0.002-0.007-0.002l-0.375-0.062c-0.004,0-0.008,0.001-0.012,0  c-0.004,0-0.007-0.003-0.011-0.004l-0.438-0.062c-0.013-0.002-0.024,0.004-0.038,0.003c-0.013-0.001-0.023-0.009-0.037-0.011  l-0.469-0.031c-0.021-0.001-0.041,0.009-0.062,0.009c-0.021-0.001-0.04-0.011-0.061-0.009l-0.562,0.031  c-0.009,0-0.016,0.005-0.024,0.006c-0.008,0-0.016-0.004-0.024-0.002l-0.582,0.061l-0.391,0.03  c-0.014,0.001-0.023,0.009-0.037,0.011c-0.013,0.002-0.024-0.004-0.038-0.002l-0.406,0.062c-0.01,0.002-0.018,0.008-0.027,0.01  s-0.02-0.002-0.03,0l-0.438,0.094c-0.016,0.004-0.026,0.015-0.042,0.019c-0.014,0.004-0.028,0-0.042,0.005l-0.377,0.115  l-0.853,0.213c-0.002,0.001-0.003,0.002-0.005,0.003c-0.001,0-0.003-0.001-0.004,0l-0.844,0.219  c-0.009,0.003-0.016,0.009-0.024,0.012c-0.01,0.003-0.02,0.001-0.029,0.003l-0.721,0.23l-0.278,0.051  c-0.011,0.002-0.02,0.01-0.03,0.013c-0.012,0.003-0.022-0.001-0.033,0.001l-0.375,0.094c-0.02,0.006-0.033,0.02-0.052,0.025  c-0.02,0.006-0.039,0.002-0.058,0.009L69.77,53.01l-0.133,0.014h-0.199h-0.064l-0.381-0.096l-0.424-0.105l-0.362-0.155  c-0.007-0.003-0.014-0.001-0.021-0.005c-0.009-0.003-0.014-0.01-0.021-0.013l-0.428-0.16l-0.337-0.192l-0.421-0.271  c-0.012-0.008-0.026-0.008-0.039-0.015c-0.012-0.007-0.019-0.019-0.031-0.026l-0.354-0.188l-0.312-0.288  c-0.011-0.01-0.024-0.013-0.035-0.021c-0.01-0.009-0.015-0.021-0.025-0.03l-0.392-0.308l-0.322-0.322l-0.344-0.373l-0.35-0.407  l-0.299-0.381l-0.283-0.453L63.9,48.747l-0.258-0.487l-0.369-0.739l-0.13-0.285l-0.121-0.303l-0.109-0.273l-0.08-0.268l-0.094-0.312  l-0.076-0.253l-0.045-0.271l-0.028-0.31l-0.031-0.344c-0.001-0.009-0.006-0.016-0.008-0.025c-0.001-0.009,0.003-0.017,0.002-0.026  L62.5,44.481v-0.864c0-0.004-0.002-0.008-0.003-0.013c0-0.005,0.003-0.009,0.003-0.014l-0.03-1.128l0.03-1.067  c0-0.005-0.003-0.01-0.003-0.015c0-0.005,0.003-0.008,0.003-0.013v-0.833l0.053-0.369c0.002-0.011-0.003-0.021-0.002-0.031  c0.001-0.01,0.007-0.018,0.008-0.027l0.03-0.365c0-0.001,0.001-0.002,0.001-0.003l0.031-0.344c0,0,0,0,0,0l0.023-0.233l0.075-0.301  c0.002-0.007-0.001-0.014,0.001-0.021c0.002-0.009,0.008-0.016,0.01-0.025l0.047-0.232l0.065-0.176  c0.004-0.01,0.001-0.02,0.005-0.03c0.004-0.012,0.013-0.021,0.017-0.034l0.094-0.312l0.062-0.209l0.104-0.186  c0.007-0.013,0.006-0.027,0.013-0.04c0.01-0.019,0.023-0.033,0.032-0.052l0.278-0.649l0.18-0.41l0.227-0.328l0.277-0.401  l0.206-0.283l0.269-0.295l0.24-0.24l0.316-0.237c0.006-0.004,0.008-0.01,0.013-0.015c0.007-0.005,0.015-0.006,0.021-0.011  l0.271-0.222l0.262-0.143c0.006-0.003,0.01-0.01,0.016-0.013c0.01-0.005,0.021-0.007,0.03-0.013l0.308-0.189l0.266-0.088  c0.02-0.006,0.032-0.021,0.051-0.029c0.017-0.006,0.035-0.003,0.052-0.011l0.322-0.148l0.282-0.071  c0.005-0.001,0.008-0.005,0.013-0.006c0.007-0.002,0.013-0.001,0.02-0.003l0.398-0.114l0.345-0.074l0.393-0.026l0,0  c0.004,0,0.007,0,0.011,0l0.368-0.028h0.461H69.5h0.502l0.369,0.024l0.444,0.083c0.016,0.003,0.03,0.002,0.045,0.004  c0.006,0,0.01,0.004,0.016,0.005l0.467,0.059l0.473,0.088c0.003,0,0.005,0,0.008,0c0.001,0,0.002,0.001,0.003,0.001l0.5,0.088  l0.477,0.112l0.462,0.144c0.006,0.002,0.013,0.001,0.019,0.003c0.004,0.001,0.008,0.004,0.012,0.006l0.543,0.151l0.489,0.153  c0.006,0.002,0.013,0.001,0.019,0.003c0.004,0.001,0.008,0.004,0.012,0.006l0.528,0.146l0.481,0.17l0.552,0.214  c0.009,0.003,0.017,0.002,0.025,0.005c0.008,0.002,0.013,0.009,0.021,0.012l0.281,0.094c0.006,0.002,0.012,0.001,0.018,0.003  c0.004,0.001,0.007,0.005,0.012,0.006l0.276,0.083l0.222,0.083c0.048,0.018,0.097,0.016,0.145,0.026  c0.034,0.007,0.062,0.027,0.097,0.031l0.281,0.031c0.037,0.004,0.073,0.006,0.11,0.006l0,0h0.219h0.281h0.25c0,0,0,0,0.001,0  c0.046,0,0.093-0.003,0.141-0.01l0.219-0.031c0.012-0.001,0.02-0.009,0.031-0.011c0.023-0.004,0.046-0.002,0.069-0.008l0.25-0.062  c0.005-0.001,0.008-0.005,0.013-0.006c0.007-0.002,0.013-0.001,0.02-0.003l0.219-0.062c0.021-0.006,0.036-0.022,0.058-0.03  c0.021-0.007,0.041-0.004,0.062-0.013l0.219-0.094c0.006-0.002,0.01-0.008,0.016-0.011c0.013-0.005,0.025-0.007,0.038-0.014  l0.188-0.094l0.188-0.094c0.016-0.008,0.024-0.022,0.039-0.03c0.022-0.013,0.047-0.018,0.068-0.032l0.188-0.125  c0.014-0.009,0.021-0.024,0.034-0.035c0.017-0.012,0.036-0.016,0.052-0.029l0.188-0.156l0.188-0.156l0.188-0.156  c0.013-0.01,0.018-0.025,0.029-0.036c0.011-0.01,0.026-0.014,0.037-0.025l0.156-0.156c0.006-0.006,0.008-0.014,0.014-0.02  c0.006-0.006,0.014-0.008,0.02-0.014l0.312-0.344c0.006-0.006,0.007-0.014,0.012-0.021c0.005-0.005,0.012-0.007,0.017-0.012  l0.312-0.375c0.005-0.006,0.006-0.013,0.01-0.019c0.004-0.005,0.011-0.006,0.015-0.012l0.312-0.406  c0.007-0.009,0.008-0.021,0.015-0.03c0.01-0.014,0.023-0.024,0.033-0.04l0.281-0.438c0.001-0.002,0.001-0.004,0.003-0.006  c0.002-0.004,0.006-0.006,0.008-0.01l0.25-0.406c0.003-0.005,0.003-0.011,0.006-0.016c0.006-0.009,0.014-0.016,0.019-0.025  l0.5-0.906c0,0,0,0,0-0.001l0.117-0.205l0.125-0.219c0.016-0.027,0.016-0.057,0.028-0.085c0.029-0.063,0.064-0.124,0.08-0.194  l0.036-0.162l0.069-0.139c0.01-0.019,0.008-0.039,0.016-0.058c0.011-0.025,0.029-0.046,0.038-0.073l0.094-0.281  c0.011-0.033,0.005-0.066,0.013-0.1c0.009-0.041,0.03-0.075,0.034-0.117l0.026-0.266l0.053-0.263c0.001-0.003-0.001-0.006,0-0.01  c0.001-0.003,0.002-0.005,0.003-0.008l0.062-0.344c0.003-0.016-0.003-0.031-0.001-0.047c0.002-0.018,0.012-0.031,0.014-0.049  l0.03-0.365c0-0.001,0.001-0.002,0.001-0.003l0.029-0.317l0.057-0.371c0.004-0.026-0.006-0.05-0.004-0.076  c0.002-0.026,0.016-0.049,0.016-0.076v-0.375V26.18v-0.438c0-0.013-0.007-0.024-0.008-0.037c0-0.012,0.006-0.022,0.005-0.035  l-0.062-0.875l-0.062-0.875c0-0.005-0.003-0.008-0.004-0.013c0-0.005,0.003-0.01,0.002-0.016l-0.094-0.938  c-0.001-0.012-0.009-0.021-0.01-0.033c-0.002-0.011,0.003-0.021,0.001-0.032l-0.156-0.938c0-0.003-0.003-0.005-0.003-0.008  c-0.001-0.002,0-0.004,0-0.006l-0.188-1.031l-0.188-1.031c-0.002-0.011-0.01-0.02-0.012-0.03c-0.003-0.012,0.001-0.022-0.002-0.034  l-0.25-1c-0.003-0.01-0.01-0.017-0.013-0.026s0-0.02-0.003-0.029l-0.31-0.992l-0.311-1.054c-0.001-0.003-0.003-0.005-0.004-0.008  c-0.001-0.002,0-0.005-0.001-0.008l-1.562-5c-0.005-0.016-0.017-0.026-0.022-0.041c-0.025-0.071-0.066-0.131-0.106-0.193  c-0.03-0.047-0.056-0.097-0.093-0.138c-0.048-0.052-0.106-0.089-0.164-0.13c-0.047-0.033-0.089-0.07-0.141-0.095  c-0.059-0.028-0.121-0.039-0.186-0.056s-0.126-0.036-0.194-0.039c-0.017-0.001-0.031-0.01-0.048-0.01h-62c-0.553,0-1,0.448-1,1  v62.531c0,0.03,0.015,0.055,0.018,0.084C16.957,74.637,16.947,74.664,16.952,74.693z M79.203,12.992l1.34,4.291l0.311,1.054  c0.001,0.003,0.003,0.005,0.004,0.008c0.001,0.002,0,0.005,0.001,0.008l0.304,0.973l0.235,0.942l0.182,0.997l0.185,1.016  c0,0,0,0.001,0,0.001l0.15,0.903l0.091,0.907c0,0,0,0,0,0l0.061,0.846l0.06,0.834v0.407v0.375v0.299l-0.051,0.33  c-0.002,0.01,0.003,0.02,0.001,0.03c-0.001,0.011-0.008,0.02-0.009,0.031l-0.031,0.344c0,0.002,0.001,0.003,0.001,0.005  c-0.001,0-0.001,0.001-0.001,0.002l-0.027,0.327l-0.051,0.277c0,0,0,0,0,0.001l-0.062,0.312c-0.003,0.017,0.003,0.032,0,0.049  s-0.013,0.03-0.015,0.048l-0.021,0.204l-0.034,0.103l-0.095,0.189c-0.02,0.038-0.019,0.079-0.032,0.118  c-0.014,0.04-0.04,0.071-0.05,0.112l-0.03,0.135l-0.049,0.086l-0.125,0.219c-0.001,0.002-0.001,0.004-0.002,0.006  c-0.002,0.003-0.005,0.004-0.006,0.007l-0.493,0.893l-0.232,0.378c0,0,0,0,0,0l-0.242,0.377l-0.283,0.368l-0.282,0.339l-0.29,0.319  l-0.099,0.099l-0.155,0.129l-0.188,0.156l-0.147,0.123l-0.089,0.059l-0.133,0.066l-0.168,0.084l-0.125,0.054l-0.139,0.04  l-0.19,0.047l-0.095,0.014h-0.18h-0.281h-0.166l-0.098-0.011l-0.135-0.051c-0.012-0.004-0.023-0.001-0.034-0.005  c-0.012-0.004-0.019-0.013-0.03-0.016l-0.298-0.089l-0.244-0.082l-0.539-0.209c-0.005-0.002-0.011-0.001-0.016-0.003  c-0.005-0.001-0.009-0.006-0.014-0.008l-0.531-0.188c-0.012-0.004-0.023-0.001-0.035-0.005c-0.011-0.003-0.019-0.012-0.03-0.016  l-0.543-0.151l-0.489-0.153c-0.006-0.001-0.011,0-0.017-0.001c-0.005-0.002-0.009-0.006-0.014-0.007L73.85,32.19l-0.489-0.153  c-0.012-0.003-0.023,0-0.035-0.003c-0.012-0.003-0.021-0.013-0.033-0.016l-0.531-0.125c-0.01-0.002-0.02,0.001-0.029-0.001  s-0.017-0.009-0.026-0.01L72.18,31.79l-0.495-0.093c-0.011-0.002-0.021,0.002-0.031,0s-0.019-0.008-0.029-0.01l-0.467-0.059  l-0.473-0.088c-0.021-0.004-0.041,0.003-0.062,0c-0.02-0.002-0.036-0.014-0.057-0.015l-0.469-0.031  c-0.012-0.001-0.021,0.005-0.033,0.004s-0.021-0.007-0.033-0.007H69.5h-0.438h-0.5c-0.014,0-0.024,0.007-0.037,0.008  c-0.014,0-0.026-0.006-0.04-0.005l-0.406,0.031l-0.001,0l-0.457,0.03c-0.024,0.001-0.045,0.015-0.068,0.019  c-0.025,0.003-0.05-0.004-0.075,0.001L67.04,31.67c-0.012,0.002-0.021,0.011-0.032,0.014c-0.011,0.002-0.021,0-0.032,0.002  l-0.417,0.119l-0.363,0.091c-0.031,0.008-0.055,0.03-0.085,0.041c-0.03,0.01-0.062,0.008-0.092,0.021l-0.356,0.165l-0.322,0.107  c-0.038,0.013-0.063,0.041-0.099,0.057c-0.036,0.017-0.075,0.019-0.109,0.04l-0.388,0.238l-0.316,0.173  c-0.028,0.016-0.045,0.042-0.072,0.06c-0.026,0.018-0.057,0.023-0.082,0.044l-0.329,0.27l-0.356,0.267  c-0.02,0.015-0.029,0.037-0.047,0.053c-0.019,0.016-0.043,0.022-0.061,0.04l-0.312,0.312c-0.006,0.006-0.007,0.014-0.013,0.019  c-0.006,0.006-0.015,0.009-0.021,0.015l-0.312,0.344c-0.013,0.014-0.017,0.033-0.028,0.048s-0.029,0.021-0.04,0.037l-0.25,0.344  c-0.002,0.003-0.003,0.007-0.005,0.01c-0.002,0.004-0.007,0.005-0.009,0.009l-0.281,0.406l-0.281,0.406  c-0.02,0.028-0.022,0.061-0.039,0.09c-0.016,0.028-0.041,0.048-0.055,0.079l-0.219,0.5c-0.001,0.001,0,0.002-0.001,0.004  c0,0.001-0.001,0.002-0.002,0.003l-0.261,0.608l-0.132,0.237c-0.019,0.033-0.019,0.068-0.032,0.102  c-0.015,0.035-0.041,0.061-0.052,0.097l-0.094,0.312l-0.084,0.279l-0.082,0.219c-0.01,0.027-0.005,0.054-0.013,0.081  c-0.008,0.026-0.025,0.047-0.031,0.074l-0.059,0.295l-0.087,0.346c-0.006,0.024,0.001,0.047-0.003,0.071  c-0.005,0.025-0.02,0.046-0.022,0.072l-0.031,0.312c0,0.001,0.001,0.003,0,0.004c0,0.002-0.001,0.003-0.001,0.005l-0.031,0.344  c0,0.002,0.001,0.003,0.001,0.005c-0.001,0-0.001,0.001-0.001,0.002l-0.027,0.333l-0.061,0.421  c-0.004,0.025,0.006,0.048,0.004,0.073c-0.002,0.024-0.014,0.044-0.014,0.069v0.878l-0.031,1.094c0,0.01,0.005,0.018,0.005,0.028  c0,0.009-0.005,0.018-0.005,0.027l0.031,1.156v0.911c0,0.024,0.012,0.045,0.014,0.069c0.002,0.025-0.008,0.048-0.004,0.073  l0.06,0.415l0.028,0.315l0.031,0.344c0.001,0.014,0.009,0.025,0.011,0.038c0.002,0.012-0.003,0.024-0.001,0.036l0.062,0.375  c0.004,0.023,0.018,0.042,0.023,0.064c0.004,0.02-0.001,0.039,0.005,0.059l0.094,0.312l0.094,0.312l0.094,0.312  c0.005,0.017,0.017,0.029,0.022,0.045c0.004,0.013,0.002,0.026,0.007,0.039l0.125,0.312l0.125,0.312  c0.004,0.009,0.011,0.016,0.015,0.024c0.002,0.006,0.001,0.012,0.004,0.018l0.156,0.344c0.003,0.006,0.008,0.011,0.012,0.018  c0.002,0.005,0.001,0.011,0.004,0.016l0.375,0.75c0.002,0.004,0.006,0.007,0.008,0.012c0.002,0.003,0.002,0.006,0.003,0.009  l0.281,0.531c0.007,0.014,0.019,0.023,0.026,0.037c0.005,0.008,0.005,0.017,0.01,0.025l0.312,0.5l0.312,0.5  c0.013,0.021,0.03,0.035,0.045,0.054c0.007,0.011,0.009,0.023,0.017,0.034l0.344,0.437c0.005,0.006,0.012,0.008,0.016,0.014  c0.005,0.006,0.007,0.014,0.012,0.02l0.375,0.438c0.004,0.006,0.01,0.007,0.015,0.012c0.004,0.004,0.005,0.012,0.01,0.016  l0.375,0.406c0.005,0.006,0.011,0.007,0.016,0.012s0.007,0.012,0.012,0.018l0.375,0.375c0.015,0.015,0.034,0.02,0.05,0.033  s0.022,0.033,0.039,0.046l0.404,0.317l0.379,0.35c0.035,0.033,0.079,0.047,0.118,0.074c0.032,0.022,0.054,0.055,0.09,0.074  l0.431,0.229l0.405,0.262c0.01,0.006,0.02,0.008,0.029,0.013c0.006,0.004,0.01,0.011,0.016,0.014l0.438,0.25  c0.033,0.019,0.068,0.026,0.102,0.042c0.016,0.007,0.026,0.02,0.043,0.026l0.492,0.185l0.403,0.173  c0.025,0.011,0.052,0.007,0.077,0.017c0.026,0.008,0.047,0.027,0.074,0.035l0.5,0.125l0.5,0.125c0.08,0.02,0.161,0.029,0.24,0.029  c0.001,0,0.001,0,0.002,0h0.188h0.25l0,0c0.033,0,0.065-0.002,0.1-0.005l0.312-0.031c0.036-0.004,0.065-0.024,0.101-0.031  c0.051-0.011,0.102-0.009,0.151-0.027l0.199-0.075l0.285-0.07l0.312-0.057c0.018-0.004,0.03-0.016,0.048-0.02  c0.026-0.006,0.052-0.004,0.078-0.012l0.762-0.244l0.8-0.207h0.001l0.875-0.219c0.008-0.002,0.014-0.008,0.021-0.01  c0.011-0.004,0.021-0.002,0.031-0.006l0.358-0.109l0.378-0.082l0.333-0.051l0.37-0.028c0.002,0,0.003-0.001,0.005-0.001  c0.007-0.001,0.015-0.001,0.022-0.002l0.569-0.06l0.479-0.026l0.367,0.024l0.387,0.056l0.352,0.059l0.227,0.041l0.132,0.059  l0.23,0.127c0,0.001,0,0.001,0,0.001l0.193,0.11l0.185,0.115l0.134,0.111l0.179,0.149l0.293,0.264  c0.013,0.011,0.028,0.015,0.041,0.024c0.012,0.01,0.017,0.023,0.028,0.032l0.375,0.281l0.066,0.05l0.135,0.135l0.13,0.156  l0.036,0.043l0.029,0.086c0,0.002,0.001,0.004,0.002,0.006l0.003,0.01c0.039,0.118,0.103,0.22,0.177,0.311  c0.006,0.008,0.007,0.017,0.013,0.023l0.017,0.021l0.012,0.057c0.009,0.043,0.032,0.077,0.046,0.117  c0.01,0.03,0.007,0.062,0.021,0.093l0.078,0.175l0.04,0.223c0.002,0.012,0.01,0.021,0.013,0.032  c0.002,0.012-0.002,0.021,0.001,0.031l0.086,0.346l0.048,0.262l0.027,0.327c0.001,0.01,0.007,0.018,0.008,0.027  c0.001,0.011-0.004,0.021-0.002,0.031l0.053,0.369v0.364c0,0.014,0.007,0.025,0.008,0.038c0,0.013-0.006,0.024-0.005,0.038  l0.028,0.369v0.431l-0.026,0.365l-0.061,0.517c-0.001,0.011,0.003,0.021,0.003,0.031c-0.001,0.01-0.007,0.018-0.008,0.027  l-0.031,0.531c0,0,0,0.001,0,0.002c0,0,0,0,0,0.001l-0.029,0.525l-0.059,0.499l-0.089,0.562l-0.094,0.594l-0.089,0.564l-0.123,0.614  c0,0.001,0,0.003,0,0.005s-0.002,0.002-0.002,0.004l-0.122,0.64l-0.306,1.285c0,0.002,0,0.005,0,0.007  c-0.001,0.002-0.003,0.005-0.004,0.008l-0.309,1.391l-0.394,1.392c0,0.001-0.001,0.001-0.001,0.001l-0.594,2.062  c-0.001,0.005,0,0.009-0.001,0.014c-0.001,0.003-0.004,0.006-0.005,0.01l-0.302,1.146l-0.142,0.397c-0.001,0.003,0,0.007-0.002,0.01  c-0.001,0.004-0.004,0.006-0.005,0.01l-0.118,0.354l-5.666-1.773h-0.001c-0.001,0-0.001,0-0.001,0l-0.906-0.281  c-0.001,0-0.002,0-0.003,0l0,0l-0.812-0.25l-0.812-0.25c-0.001-0.001-0.003,0-0.004-0.001c-0.002-0.001-0.004-0.003-0.006-0.003  l-0.844-0.25c-0.006-0.002-0.012,0-0.018-0.002c-0.005-0.001-0.009-0.006-0.015-0.007l-0.719-0.188  c-0.002-0.001-0.004,0-0.005-0.001c-0.002,0-0.003-0.001-0.005-0.002l-0.74-0.185l-0.719-0.188  c-0.004-0.001-0.008,0.001-0.012-0.001c-0.003,0-0.006-0.003-0.009-0.004l-0.656-0.156c-0.007-0.002-0.015,0.001-0.021,0  c-0.009-0.002-0.015-0.008-0.022-0.01l-0.656-0.125h-0.001l-0.615-0.123c-0.007-0.002-0.014,0.002-0.021,0  c-0.007-0.001-0.013-0.006-0.02-0.008l-0.594-0.094l-0.584-0.092l-0.523-0.092c-0.021-0.004-0.039,0.004-0.06,0.001  s-0.038-0.015-0.059-0.015l-0.562-0.031l0,0l-0.493-0.031c-0.011-0.001-0.021,0.005-0.031,0.004c-0.012,0-0.021-0.006-0.031-0.006  h-0.469h-0.469h-0.469c-0.014,0-0.024,0.008-0.038,0.008s-0.025-0.006-0.039-0.005l-0.406,0.031l-0.406,0.031  c-0.026,0.002-0.048,0.017-0.073,0.021s-0.049-0.004-0.074,0.002l-0.406,0.094c-0.007,0.002-0.012,0.007-0.019,0.009  c-0.007,0.001-0.013-0.001-0.02,0.001l-0.302,0.082l-0.302,0.055c-0.024,0.005-0.042,0.021-0.065,0.026  c-0.024,0.007-0.048,0.001-0.072,0.009l-0.375,0.125c-0.01,0.004-0.016,0.012-0.025,0.016c-0.01,0.003-0.02,0.001-0.029,0.005  l-0.293,0.117l-0.25,0.094c-0.018,0.007-0.028,0.021-0.045,0.028s-0.034,0.006-0.051,0.014l-0.312,0.156  c-0.007,0.004-0.011,0.01-0.019,0.014c-0.006,0.004-0.013,0.004-0.02,0.007l-0.281,0.156c-0.017,0.009-0.026,0.026-0.043,0.036  c-0.017,0.011-0.036,0.012-0.053,0.023l-0.219,0.156c-0.004,0.003-0.005,0.008-0.009,0.01c-0.003,0.002-0.007,0.002-0.01,0.005  l-0.25,0.188c-0.011,0.008-0.015,0.021-0.025,0.028c-0.01,0.008-0.023,0.01-0.033,0.02L55.1,70.451l-0.219,0.188  c-0.021,0.019-0.029,0.043-0.049,0.062s-0.046,0.029-0.064,0.051l-0.344,0.406c-0.001,0.001-0.001,0.002-0.001,0.003l-0.182,0.212  c-0.006,0.006-0.007,0.014-0.012,0.021c-0.006,0.006-0.014,0.009-0.019,0.016l-0.193,0.248l-0.208,0.238  c-0.021,0.023-0.027,0.053-0.045,0.078c-0.018,0.024-0.044,0.039-0.06,0.065l-0.188,0.312c-0.001,0.001-0.001,0.003-0.002,0.005  s-0.004,0.004-0.005,0.006l-0.219,0.375c-0.009,0.016-0.009,0.034-0.018,0.051c-0.007,0.015-0.021,0.023-0.028,0.039l-0.156,0.344  c-0.004,0.01-0.003,0.02-0.007,0.028c-0.004,0.011-0.013,0.017-0.017,0.026l-0.156,0.406c-0.009,0.023-0.005,0.047-0.012,0.07  s-0.023,0.04-0.029,0.064l-0.087,0.378l-0.118,0.412l-0.05,0.149c-0.011,0.032-0.005,0.064-0.012,0.098  c-0.008,0.033-0.028,0.061-0.032,0.095l-0.031,0.25c-0.003,0.021,0.006,0.041,0.005,0.062c-0.002,0.022-0.013,0.041-0.013,0.062  v0.219v0.25v0.219v0.25c0,0.02,0.01,0.035,0.011,0.055c0.001,0.019-0.007,0.036-0.005,0.056l0.031,0.281  c0.004,0.03,0.02,0.056,0.026,0.085c0.005,0.027-0.002,0.053,0.006,0.08l0.055,0.191l0.056,0.25  c0.008,0.037,0.029,0.066,0.042,0.102c0.008,0.025,0.005,0.051,0.016,0.076l0.069,0.16l0.358,1.227l0,0l0.299,1.135l0,0l0.248,1.055  l0.089,0.444c0.001,0.005,0.004,0.009,0.006,0.015c0.001,0.004-0.001,0.01,0,0.014l0.094,0.406c0,0.001,0.001,0.002,0.001,0.002  l0.081,0.379l0.056,0.389l0.024,0.271v0.297c0,0.016,0.008,0.027,0.009,0.043c0,0.014-0.006,0.025-0.005,0.04l0.027,0.328v0.226  L54.1,84.075l-0.029,0.23l-0.02,0.153l-0.062,0.186c-0.002,0.007,0,0.014-0.003,0.02c-0.002,0.008-0.009,0.014-0.011,0.021  l-0.053,0.184l-0.06,0.16l-0.043,0.086l-0.09,0.135l-0.121,0.182l-0.115,0.162l-0.138,0.164l-0.098,0.118l-0.118,0.099  c-0.002,0.001-0.003,0.004-0.005,0.006c-0.001,0.001-0.003,0.001-0.005,0.002l-0.219,0.188c-0.005,0.004-0.006,0.01-0.011,0.014  c-0.005,0.006-0.013,0.006-0.018,0.012l-0.346,0.318l-0.456,0.295c-0.017,0.012-0.024,0.028-0.04,0.039  c-0.016,0.012-0.034,0.015-0.05,0.027l-0.271,0.221l-0.262,0.144c-0.021,0.011-0.031,0.03-0.051,0.042  c-0.019,0.012-0.04,0.014-0.059,0.027l-0.291,0.211l-0.229,0.125l-0.298,0.115l-0.295,0.08c-0.033,0.009-0.057,0.032-0.088,0.044  c-0.031,0.013-0.065,0.011-0.097,0.026l-0.241,0.121l-0.226,0.037c-0.026,0.004-0.047,0.021-0.073,0.027  c-0.026,0.007-0.053,0.002-0.079,0.01l-0.258,0.086l-0.284,0.022l-0.406,0.031c-0.014,0.001-0.023,0.009-0.037,0.011  c-0.013,0.002-0.024-0.004-0.038-0.002l-0.33,0.051h-0.361h-0.438h-0.312l-0.409-0.076c-0.022-0.004-0.043,0.003-0.065,0  c-0.022-0.002-0.041-0.015-0.063-0.016l-0.469-0.026l-0.407-0.103c-0.005,0-0.009,0.001-0.014,0  c-0.004-0.001-0.008-0.004-0.012-0.006l-0.545-0.121l-0.492-0.123l-0.441-0.109l-0.417-0.156l-0.371-0.172  c-0.009-0.004-0.018-0.002-0.026-0.006c-0.008-0.004-0.013-0.012-0.021-0.015l-0.405-0.162l-0.368-0.21l0,0l-0.375-0.219  c-0.006-0.004-0.012-0.004-0.018-0.006c-0.005-0.004-0.008-0.008-0.013-0.012l-0.321-0.172l-0.261-0.214  c0-0.001,0-0.001-0.001-0.001l-0.366-0.306l-0.273-0.246l-0.238-0.237l-0.204-0.281c-0.006-0.008-0.015-0.012-0.021-0.02  s-0.007-0.018-0.014-0.025l-0.231-0.283l-0.179-0.307c-0.004-0.006-0.01-0.01-0.014-0.016c-0.003-0.006-0.003-0.012-0.007-0.018  l-0.183-0.287l-0.159-0.345c-0.002-0.005-0.007-0.008-0.01-0.013c-0.002-0.006-0.002-0.011-0.004-0.016l-0.146-0.291l-0.1-0.35  c-0.006-0.02-0.021-0.033-0.028-0.053c-0.006-0.02-0.003-0.038-0.011-0.057l-0.106-0.256l-0.045-0.313  c-0.002-0.011-0.008-0.018-0.01-0.027c-0.002-0.009,0.002-0.019,0-0.027l-0.082-0.409l-0.026-0.372  c-0.001-0.011-0.007-0.019-0.008-0.029s0.003-0.021,0.002-0.032l-0.054-0.402v-0.402v-0.37l0.074-0.371  c0.005-0.022-0.003-0.044,0-0.065c0.003-0.023,0.016-0.044,0.018-0.068l0.025-0.41l0.103-0.41c0.001-0.003,0-0.006,0-0.009  c0.001-0.004,0.004-0.007,0.005-0.011l0.25-1.094c0.001-0.003,0-0.006,0-0.008c0.001-0.005,0.004-0.008,0.005-0.012l0.188-0.906  c0.005-0.021-0.003-0.042,0-0.062c0.004-0.023,0.016-0.041,0.018-0.064l0.024-0.311l0.068-0.252  c0.013-0.045,0.003-0.089,0.009-0.134c0.006-0.044,0.026-0.084,0.026-0.13v-0.255l0.025-0.229c0.002-0.02-0.006-0.037-0.005-0.056  c0.001-0.02,0.011-0.035,0.011-0.055v-0.25c0-0.02-0.01-0.035-0.011-0.055c-0.001-0.019,0.007-0.036,0.005-0.056l-0.031-0.281  c-0.003-0.029-0.02-0.052-0.025-0.081c-0.006-0.027,0.001-0.056-0.007-0.084l-0.044-0.153l-0.021-0.15l-0.031-0.219  c-0.006-0.038-0.027-0.067-0.037-0.103c-0.009-0.036-0.004-0.072-0.017-0.107l-0.094-0.25c-0.003-0.008-0.01-0.012-0.013-0.02  s-0.002-0.016-0.005-0.023l-0.094-0.219c-0.004-0.009-0.013-0.014-0.017-0.023s-0.003-0.02-0.008-0.029l-0.125-0.25  c-0.006-0.012-0.018-0.02-0.024-0.031c-0.006-0.012-0.006-0.024-0.013-0.036l-0.073-0.122l-0.046-0.092  c-0.014-0.028-0.04-0.045-0.056-0.071c-0.017-0.026-0.021-0.057-0.039-0.081l-0.094-0.125c-0.015-0.021-0.037-0.029-0.054-0.048  c-0.016-0.019-0.021-0.042-0.039-0.06l-0.074-0.074l-0.052-0.068c-0.015-0.021-0.037-0.029-0.054-0.048  c-0.016-0.019-0.021-0.042-0.039-0.06l-0.125-0.125c-0.014-0.014-0.031-0.018-0.046-0.03s-0.021-0.031-0.036-0.044l-0.156-0.125  c-0.019-0.014-0.041-0.018-0.061-0.03c-0.019-0.014-0.029-0.034-0.05-0.046l-0.099-0.059l-0.104-0.084l-0.156-0.125  c-0.042-0.033-0.093-0.045-0.138-0.07c-0.044-0.025-0.079-0.062-0.128-0.082l-0.359-0.138l-0.334-0.167  c-0.022-0.012-0.047-0.01-0.069-0.019c-0.022-0.01-0.038-0.028-0.062-0.036l-0.375-0.125c-0.013-0.004-0.026,0-0.039-0.004  s-0.022-0.014-0.035-0.018l-0.5-0.125c-0.006-0.001-0.011,0.001-0.016,0c-0.007-0.002-0.011-0.006-0.017-0.008l-0.438-0.094  c-0.007-0.001-0.013,0.002-0.02,0c-0.006-0.001-0.011-0.006-0.017-0.006l-0.531-0.094c-0.02-0.004-0.037,0.004-0.057,0.001  s-0.035-0.014-0.055-0.015l-0.5-0.031c-0.011-0.001-0.021,0.005-0.031,0.004c-0.012,0-0.021-0.006-0.031-0.006h-0.531h-0.562  c-0.01,0-0.018,0.006-0.027,0.006s-0.019-0.005-0.028-0.004l-0.562,0.031c-0.011,0-0.02,0.006-0.03,0.008  c-0.011,0-0.021-0.004-0.031-0.003l-0.531,0.062c-0.013,0.001-0.023,0.01-0.036,0.012c-0.014,0.003-0.025-0.003-0.039,0  l-7.031,1.375c-0.009,0.002-0.016,0.008-0.024,0.01s-0.017-0.001-0.025,0.001l-0.965,0.242l-1.029,0.182  c-0.005,0-0.009,0.004-0.014,0.005s-0.009-0.001-0.014,0l-2.112,0.435l-1.437,0.262V12.992H79.203z"/><text x="0" y="115" fill="#000000" font-size="5px" font-weight="bold" font-family="'Helvetica Neue', Helvetica, Arial-Unicode, Arial, Sans-serif">Created by ilCactusBlu</text><text x="0" y="120" fill="#000000" font-size="5px" font-weight="bold" font-family="'Helvetica Neue', Helvetica, Arial-Unicode, Arial, Sans-serif">from the Noun Project</text></svg>